<mxfile host="app.diagrams.net" modified="2024-02-22T06:48:45.119Z" agent="Mozilla/5.0 (Windows NT 10.0; Win64; x64) AppleWebKit/537.36 (KHTML, like Gecko) Chrome/121.0.0.0 Safari/537.36" etag="LhguouReM4dxBfjb6-RN" version="23.1.5" type="github">
  <diagram id="6a731a19-8d31-9384-78a2-239565b7b9f0" name="Page-1">
    <mxGraphModel dx="4940" dy="3650" grid="1" gridSize="10" guides="1" tooltips="1" connect="1" arrows="1" fold="1" page="1" pageScale="1" pageWidth="1169" pageHeight="827" background="none" math="0" shadow="0">
      <root>
        <mxCell id="0" />
        <mxCell id="1" parent="0" />
        <mxCell id="1UIoT6ySWnRTdIGvDfuI-1921" value="" style="edgeStyle=orthogonalEdgeStyle;rounded=0;orthogonalLoop=1;jettySize=auto;html=1;" parent="1" source="1749" target="1UIoT6ySWnRTdIGvDfuI-1781" edge="1">
          <mxGeometry relative="1" as="geometry" />
        </mxCell>
        <mxCell id="1749" value="C" style="rounded=1;whiteSpace=wrap;html=1;shadow=0;labelBackgroundColor=none;strokeColor=none;strokeWidth=3;fillColor=#2F5B7C;fontFamily=Helvetica;fontSize=16;fontColor=#FFFFFF;align=center;fontStyle=1;spacing=5;arcSize=7;perimeterSpacing=2;" parent="1" vertex="1">
          <mxGeometry x="-320" y="-1000" width="80" height="40" as="geometry" />
        </mxCell>
        <mxCell id="1UIoT6ySWnRTdIGvDfuI-1902" value="" style="edgeStyle=orthogonalEdgeStyle;rounded=0;orthogonalLoop=1;jettySize=auto;html=1;" parent="1" source="1760" target="1762" edge="1">
          <mxGeometry relative="1" as="geometry" />
        </mxCell>
        <mxCell id="1760" value="IPC" style="rounded=1;whiteSpace=wrap;html=1;shadow=0;labelBackgroundColor=none;strokeColor=none;strokeWidth=3;fillColor=#1699d3;fontFamily=Helvetica;fontSize=14;fontColor=#FFFFFF;align=center;spacing=5;fontStyle=1;arcSize=7;perimeterSpacing=2;" parent="1" vertex="1">
          <mxGeometry x="440" y="-1080.5" width="80" height="40" as="geometry" />
        </mxCell>
        <mxCell id="1UIoT6ySWnRTdIGvDfuI-1903" value="" style="edgeStyle=orthogonalEdgeStyle;rounded=0;orthogonalLoop=1;jettySize=auto;html=1;" parent="1" source="1762" target="1UIoT6ySWnRTdIGvDfuI-1811" edge="1">
          <mxGeometry relative="1" as="geometry" />
        </mxCell>
        <mxCell id="1762" value="Run" style="rounded=1;whiteSpace=wrap;html=1;shadow=0;labelBackgroundColor=none;strokeColor=none;strokeWidth=3;fillColor=#64bbe2;fontFamily=Helvetica;fontSize=14;fontColor=#FFFFFF;align=center;spacing=5;arcSize=7;perimeterSpacing=2;" parent="1" vertex="1">
          <mxGeometry x="440" y="-981" width="80" height="40" as="geometry" />
        </mxCell>
        <mxCell id="1UIoT6ySWnRTdIGvDfuI-1922" value="" style="edgeStyle=orthogonalEdgeStyle;rounded=0;orthogonalLoop=1;jettySize=auto;html=1;" parent="1" source="1UIoT6ySWnRTdIGvDfuI-1781" target="1UIoT6ySWnRTdIGvDfuI-1782" edge="1">
          <mxGeometry relative="1" as="geometry" />
        </mxCell>
        <mxCell id="1UIoT6ySWnRTdIGvDfuI-1781" value="C++" style="rounded=1;whiteSpace=wrap;html=1;shadow=0;labelBackgroundColor=none;strokeColor=none;strokeWidth=3;fillColor=#2F5B7C;fontFamily=Helvetica;fontSize=16;fontColor=#FFFFFF;align=center;fontStyle=1;spacing=5;arcSize=7;perimeterSpacing=2;" parent="1" vertex="1">
          <mxGeometry x="-320" y="-920" width="80" height="40" as="geometry" />
        </mxCell>
        <mxCell id="1UIoT6ySWnRTdIGvDfuI-1923" value="" style="edgeStyle=orthogonalEdgeStyle;rounded=0;orthogonalLoop=1;jettySize=auto;html=1;" parent="1" source="1UIoT6ySWnRTdIGvDfuI-1782" target="1UIoT6ySWnRTdIGvDfuI-1854" edge="1">
          <mxGeometry relative="1" as="geometry" />
        </mxCell>
        <mxCell id="1UIoT6ySWnRTdIGvDfuI-1782" value="C#" style="rounded=1;whiteSpace=wrap;html=1;shadow=0;labelBackgroundColor=none;strokeColor=none;strokeWidth=3;fillColor=#2F5B7C;fontFamily=Helvetica;fontSize=16;fontColor=#FFFFFF;align=center;fontStyle=1;spacing=5;arcSize=7;perimeterSpacing=2;" parent="1" vertex="1">
          <mxGeometry x="-320" y="-840" width="80" height="40" as="geometry" />
        </mxCell>
        <mxCell id="1UIoT6ySWnRTdIGvDfuI-1920" value="" style="edgeStyle=orthogonalEdgeStyle;rounded=0;orthogonalLoop=1;jettySize=auto;html=1;" parent="1" source="1UIoT6ySWnRTdIGvDfuI-1783" target="1749" edge="1">
          <mxGeometry relative="1" as="geometry" />
        </mxCell>
        <mxCell id="1UIoT6ySWnRTdIGvDfuI-1783" value="영어" style="rounded=1;whiteSpace=wrap;html=1;shadow=0;labelBackgroundColor=none;strokeColor=none;strokeWidth=3;fillColor=#2F5B7C;fontFamily=Helvetica;fontSize=16;fontColor=#FFFFFF;align=center;fontStyle=1;spacing=5;arcSize=7;perimeterSpacing=2;" parent="1" vertex="1">
          <mxGeometry x="-320" y="-1080" width="80" height="40" as="geometry" />
        </mxCell>
        <mxCell id="1UIoT6ySWnRTdIGvDfuI-1931" value="" style="edgeStyle=orthogonalEdgeStyle;rounded=0;orthogonalLoop=1;jettySize=auto;html=1;" parent="1" source="1UIoT6ySWnRTdIGvDfuI-1784" target="1UIoT6ySWnRTdIGvDfuI-1785" edge="1">
          <mxGeometry relative="1" as="geometry" />
        </mxCell>
        <mxCell id="1UIoT6ySWnRTdIGvDfuI-1784" value="텐서" style="rounded=1;whiteSpace=wrap;html=1;shadow=0;labelBackgroundColor=none;strokeColor=none;strokeWidth=3;fillColor=#2F5B7C;fontFamily=Helvetica;fontSize=16;fontColor=#FFFFFF;align=center;fontStyle=1;spacing=5;arcSize=7;perimeterSpacing=2;" parent="1" vertex="1">
          <mxGeometry x="1430" y="-1080.5" width="80" height="40" as="geometry" />
        </mxCell>
        <mxCell id="1UIoT6ySWnRTdIGvDfuI-1785" value="최적화 문제" style="rounded=1;whiteSpace=wrap;html=1;shadow=0;labelBackgroundColor=none;strokeColor=none;strokeWidth=3;fillColor=#2F5B7C;fontFamily=Helvetica;fontSize=16;fontColor=#FFFFFF;align=center;fontStyle=1;spacing=5;arcSize=7;perimeterSpacing=2;" parent="1" vertex="1">
          <mxGeometry x="1390" y="-1000" width="160" height="40" as="geometry" />
        </mxCell>
        <mxCell id="1UIoT6ySWnRTdIGvDfuI-1882" style="edgeStyle=orthogonalEdgeStyle;rounded=0;orthogonalLoop=1;jettySize=auto;html=1;" parent="1" source="1UIoT6ySWnRTdIGvDfuI-1787" target="1UIoT6ySWnRTdIGvDfuI-1788" edge="1">
          <mxGeometry relative="1" as="geometry" />
        </mxCell>
        <mxCell id="1UIoT6ySWnRTdIGvDfuI-1787" value="Vulkan" style="rounded=1;whiteSpace=wrap;html=1;shadow=0;labelBackgroundColor=none;strokeColor=none;strokeWidth=3;fillColor=#2F5B7C;fontFamily=Helvetica;fontSize=16;fontColor=#FFFFFF;align=center;fontStyle=1;spacing=5;arcSize=7;perimeterSpacing=2;" parent="1" vertex="1">
          <mxGeometry x="-340" y="1040" width="120" height="40" as="geometry" />
        </mxCell>
        <mxCell id="1UIoT6ySWnRTdIGvDfuI-1874" value="" style="edgeStyle=orthogonalEdgeStyle;rounded=0;orthogonalLoop=1;jettySize=auto;html=1;" parent="1" source="1UIoT6ySWnRTdIGvDfuI-1788" target="1UIoT6ySWnRTdIGvDfuI-1789" edge="1">
          <mxGeometry relative="1" as="geometry" />
        </mxCell>
        <mxCell id="1UIoT6ySWnRTdIGvDfuI-1788" value="HTML + CSS" style="rounded=1;whiteSpace=wrap;html=1;shadow=0;labelBackgroundColor=none;strokeColor=none;strokeWidth=3;fillColor=#2F5B7C;fontFamily=Helvetica;fontSize=16;fontColor=#FFFFFF;align=center;fontStyle=1;spacing=5;arcSize=7;perimeterSpacing=2;" parent="1" vertex="1">
          <mxGeometry x="-340" y="1240" width="120" height="40" as="geometry" />
        </mxCell>
        <mxCell id="1UIoT6ySWnRTdIGvDfuI-1875" value="" style="edgeStyle=orthogonalEdgeStyle;rounded=0;orthogonalLoop=1;jettySize=auto;html=1;" parent="1" source="1UIoT6ySWnRTdIGvDfuI-1789" target="1UIoT6ySWnRTdIGvDfuI-1790" edge="1">
          <mxGeometry relative="1" as="geometry" />
        </mxCell>
        <mxCell id="1UIoT6ySWnRTdIGvDfuI-1789" value="JavaScript" style="rounded=1;whiteSpace=wrap;html=1;shadow=0;labelBackgroundColor=none;strokeColor=none;strokeWidth=3;fillColor=#2F5B7C;fontFamily=Helvetica;fontSize=16;fontColor=#FFFFFF;align=center;fontStyle=1;spacing=5;arcSize=7;perimeterSpacing=2;" parent="1" vertex="1">
          <mxGeometry x="-340" y="1320" width="120" height="40" as="geometry" />
        </mxCell>
        <mxCell id="1UIoT6ySWnRTdIGvDfuI-1876" value="" style="edgeStyle=orthogonalEdgeStyle;rounded=0;orthogonalLoop=1;jettySize=auto;html=1;" parent="1" source="1UIoT6ySWnRTdIGvDfuI-1790" target="1UIoT6ySWnRTdIGvDfuI-1847" edge="1">
          <mxGeometry relative="1" as="geometry" />
        </mxCell>
        <mxCell id="1UIoT6ySWnRTdIGvDfuI-1790" value="React" style="rounded=1;whiteSpace=wrap;html=1;shadow=0;labelBackgroundColor=none;strokeColor=none;strokeWidth=3;fillColor=#2F5B7C;fontFamily=Helvetica;fontSize=16;fontColor=#FFFFFF;align=center;fontStyle=1;spacing=5;arcSize=7;perimeterSpacing=2;" parent="1" vertex="1">
          <mxGeometry x="-340" y="1400" width="120" height="40" as="geometry" />
        </mxCell>
        <mxCell id="1UIoT6ySWnRTdIGvDfuI-1886" value="" style="edgeStyle=orthogonalEdgeStyle;rounded=0;orthogonalLoop=1;jettySize=auto;html=1;" parent="1" source="1UIoT6ySWnRTdIGvDfuI-1791" target="1UIoT6ySWnRTdIGvDfuI-1832" edge="1">
          <mxGeometry relative="1" as="geometry" />
        </mxCell>
        <mxCell id="1UIoT6ySWnRTdIGvDfuI-1791" value="IPC" style="rounded=1;whiteSpace=wrap;html=1;shadow=0;labelBackgroundColor=none;strokeColor=none;strokeWidth=3;fillColor=#2F5B7C;fontFamily=Helvetica;fontSize=16;fontColor=#FFFFFF;align=center;fontStyle=1;spacing=5;arcSize=7;perimeterSpacing=2;" parent="1" vertex="1">
          <mxGeometry x="-40" y="-1080" width="80" height="40" as="geometry" />
        </mxCell>
        <mxCell id="1UIoT6ySWnRTdIGvDfuI-1909" value="" style="edgeStyle=orthogonalEdgeStyle;rounded=0;orthogonalLoop=1;jettySize=auto;html=1;" parent="1" source="1UIoT6ySWnRTdIGvDfuI-1792" target="1UIoT6ySWnRTdIGvDfuI-1794" edge="1">
          <mxGeometry relative="1" as="geometry" />
        </mxCell>
        <mxCell id="1UIoT6ySWnRTdIGvDfuI-1792" value="클린 코드" style="rounded=1;whiteSpace=wrap;html=1;shadow=0;labelBackgroundColor=none;strokeColor=none;strokeWidth=3;fillColor=#2F5B7C;fontFamily=Helvetica;fontSize=16;fontColor=#FFFFFF;align=center;fontStyle=1;spacing=5;arcSize=7;perimeterSpacing=2;" parent="1" vertex="1">
          <mxGeometry x="920" y="-1080.5" width="160" height="40" as="geometry" />
        </mxCell>
        <mxCell id="Ud6QV0cFq9waYj0nxRUX-1766" value="" style="edgeStyle=orthogonalEdgeStyle;rounded=0;orthogonalLoop=1;jettySize=auto;html=1;" edge="1" parent="1" source="1UIoT6ySWnRTdIGvDfuI-1794" target="XbgNboF_cxq9ioVnNA7d-1762">
          <mxGeometry relative="1" as="geometry" />
        </mxCell>
        <mxCell id="1UIoT6ySWnRTdIGvDfuI-1794" value="디자인 페턴" style="rounded=1;whiteSpace=wrap;html=1;shadow=0;labelBackgroundColor=none;strokeColor=none;strokeWidth=3;fillColor=#2F5B7C;fontFamily=Helvetica;fontSize=16;fontColor=#FFFFFF;align=center;fontStyle=1;spacing=5;arcSize=7;perimeterSpacing=2;" parent="1" vertex="1">
          <mxGeometry x="920" y="-1000.5" width="160" height="40" as="geometry" />
        </mxCell>
        <mxCell id="1UIoT6ySWnRTdIGvDfuI-1927" value="" style="edgeStyle=orthogonalEdgeStyle;rounded=0;orthogonalLoop=1;jettySize=auto;html=1;" parent="1" source="1UIoT6ySWnRTdIGvDfuI-1798" target="1UIoT6ySWnRTdIGvDfuI-1856" edge="1">
          <mxGeometry relative="1" as="geometry" />
        </mxCell>
        <mxCell id="1UIoT6ySWnRTdIGvDfuI-1798" value="자료 구조" style="rounded=1;whiteSpace=wrap;html=1;shadow=0;labelBackgroundColor=none;strokeColor=none;strokeWidth=3;fillColor=#2F5B7C;fontFamily=Helvetica;fontSize=16;fontColor=#FFFFFF;align=center;fontStyle=1;spacing=5;arcSize=7;perimeterSpacing=2;" parent="1" vertex="1">
          <mxGeometry x="-360" y="-520" width="160" height="40" as="geometry" />
        </mxCell>
        <mxCell id="1UIoT6ySWnRTdIGvDfuI-1929" value="" style="edgeStyle=orthogonalEdgeStyle;rounded=0;orthogonalLoop=1;jettySize=auto;html=1;" parent="1" source="1UIoT6ySWnRTdIGvDfuI-1799" target="1UIoT6ySWnRTdIGvDfuI-1840" edge="1">
          <mxGeometry relative="1" as="geometry" />
        </mxCell>
        <mxCell id="1UIoT6ySWnRTdIGvDfuI-1799" value="Modern C++" style="rounded=1;whiteSpace=wrap;html=1;shadow=0;labelBackgroundColor=none;strokeColor=none;strokeWidth=3;fillColor=#2F5B7C;fontFamily=Helvetica;fontSize=16;fontColor=#FFFFFF;align=center;fontStyle=1;spacing=5;arcSize=7;perimeterSpacing=2;" parent="1" vertex="1">
          <mxGeometry x="-360" y="-200.5" width="160" height="40" as="geometry" />
        </mxCell>
        <mxCell id="1UIoT6ySWnRTdIGvDfuI-1911" value="" style="edgeStyle=orthogonalEdgeStyle;rounded=0;orthogonalLoop=1;jettySize=auto;html=1;" parent="1" source="1UIoT6ySWnRTdIGvDfuI-1800" target="1UIoT6ySWnRTdIGvDfuI-1802" edge="1">
          <mxGeometry relative="1" as="geometry" />
        </mxCell>
        <mxCell id="1UIoT6ySWnRTdIGvDfuI-1800" value="테스트 주도 개발" style="rounded=1;whiteSpace=wrap;html=1;shadow=0;labelBackgroundColor=none;strokeColor=none;strokeWidth=3;fillColor=#2F5B7C;fontFamily=Helvetica;fontSize=16;fontColor=#FFFFFF;align=center;fontStyle=1;spacing=5;arcSize=7;perimeterSpacing=2;" parent="1" vertex="1">
          <mxGeometry x="920" y="-840.5" width="160" height="40" as="geometry" />
        </mxCell>
        <mxCell id="1UIoT6ySWnRTdIGvDfuI-1912" value="" style="edgeStyle=orthogonalEdgeStyle;rounded=0;orthogonalLoop=1;jettySize=auto;html=1;" parent="1" source="1UIoT6ySWnRTdIGvDfuI-1802" target="1UIoT6ySWnRTdIGvDfuI-1803" edge="1">
          <mxGeometry relative="1" as="geometry" />
        </mxCell>
        <mxCell id="1UIoT6ySWnRTdIGvDfuI-1802" value="리펙토링" style="rounded=1;whiteSpace=wrap;html=1;shadow=0;labelBackgroundColor=none;strokeColor=none;strokeWidth=3;fillColor=#2F5B7C;fontFamily=Helvetica;fontSize=16;fontColor=#FFFFFF;align=center;fontStyle=1;spacing=5;arcSize=7;perimeterSpacing=2;" parent="1" vertex="1">
          <mxGeometry x="920" y="-760.5" width="160" height="40" as="geometry" />
        </mxCell>
        <mxCell id="1UIoT6ySWnRTdIGvDfuI-1913" value="" style="edgeStyle=orthogonalEdgeStyle;rounded=0;orthogonalLoop=1;jettySize=auto;html=1;" parent="1" source="1UIoT6ySWnRTdIGvDfuI-1803" target="1UIoT6ySWnRTdIGvDfuI-1804" edge="1">
          <mxGeometry relative="1" as="geometry" />
        </mxCell>
        <mxCell id="1UIoT6ySWnRTdIGvDfuI-1803" value="클린 아키텍쳐" style="rounded=1;whiteSpace=wrap;html=1;shadow=0;labelBackgroundColor=none;strokeColor=none;strokeWidth=3;fillColor=#2F5B7C;fontFamily=Helvetica;fontSize=16;fontColor=#FFFFFF;align=center;fontStyle=1;spacing=5;arcSize=7;perimeterSpacing=2;" parent="1" vertex="1">
          <mxGeometry x="920" y="-680.5" width="160" height="40" as="geometry" />
        </mxCell>
        <mxCell id="1UIoT6ySWnRTdIGvDfuI-1914" value="" style="edgeStyle=orthogonalEdgeStyle;rounded=0;orthogonalLoop=1;jettySize=auto;html=1;" parent="1" source="1UIoT6ySWnRTdIGvDfuI-1804" target="1UIoT6ySWnRTdIGvDfuI-1805" edge="1">
          <mxGeometry relative="1" as="geometry" />
        </mxCell>
        <mxCell id="1UIoT6ySWnRTdIGvDfuI-1804" value="코드 컴플릿" style="rounded=1;whiteSpace=wrap;html=1;shadow=0;labelBackgroundColor=none;strokeColor=none;strokeWidth=3;fillColor=#2F5B7C;fontFamily=Helvetica;fontSize=16;fontColor=#FFFFFF;align=center;fontStyle=1;spacing=5;arcSize=7;perimeterSpacing=2;" parent="1" vertex="1">
          <mxGeometry x="920" y="-600.5" width="160" height="40" as="geometry" />
        </mxCell>
        <mxCell id="1UIoT6ySWnRTdIGvDfuI-1915" value="" style="edgeStyle=orthogonalEdgeStyle;rounded=0;orthogonalLoop=1;jettySize=auto;html=1;" parent="1" source="1UIoT6ySWnRTdIGvDfuI-1805" target="1UIoT6ySWnRTdIGvDfuI-1806" edge="1">
          <mxGeometry relative="1" as="geometry" />
        </mxCell>
        <mxCell id="1UIoT6ySWnRTdIGvDfuI-1805" value="클린 코더" style="rounded=1;whiteSpace=wrap;html=1;shadow=0;labelBackgroundColor=none;strokeColor=none;strokeWidth=3;fillColor=#2F5B7C;fontFamily=Helvetica;fontSize=16;fontColor=#FFFFFF;align=center;fontStyle=1;spacing=5;arcSize=7;perimeterSpacing=2;" parent="1" vertex="1">
          <mxGeometry x="920" y="-520.5" width="160" height="40" as="geometry" />
        </mxCell>
        <mxCell id="1UIoT6ySWnRTdIGvDfuI-1916" value="" style="edgeStyle=orthogonalEdgeStyle;rounded=0;orthogonalLoop=1;jettySize=auto;html=1;" parent="1" source="1UIoT6ySWnRTdIGvDfuI-1806" target="1UIoT6ySWnRTdIGvDfuI-1807" edge="1">
          <mxGeometry relative="1" as="geometry" />
        </mxCell>
        <mxCell id="1UIoT6ySWnRTdIGvDfuI-1806" value="프로그래밍 패턴" style="rounded=1;whiteSpace=wrap;html=1;shadow=0;labelBackgroundColor=none;strokeColor=none;strokeWidth=3;fillColor=#2F5B7C;fontFamily=Helvetica;fontSize=16;fontColor=#FFFFFF;align=center;fontStyle=1;spacing=5;arcSize=7;perimeterSpacing=2;" parent="1" vertex="1">
          <mxGeometry x="920" y="-440.5" width="160" height="40" as="geometry" />
        </mxCell>
        <mxCell id="1UIoT6ySWnRTdIGvDfuI-1917" value="" style="edgeStyle=orthogonalEdgeStyle;rounded=0;orthogonalLoop=1;jettySize=auto;html=1;" parent="1" source="1UIoT6ySWnRTdIGvDfuI-1807" target="1UIoT6ySWnRTdIGvDfuI-1808" edge="1">
          <mxGeometry relative="1" as="geometry" />
        </mxCell>
        <mxCell id="1UIoT6ySWnRTdIGvDfuI-1807" value="프로그래머로 사는 법" style="rounded=1;whiteSpace=wrap;html=1;shadow=0;labelBackgroundColor=none;strokeColor=none;strokeWidth=3;fillColor=#2F5B7C;fontFamily=Helvetica;fontSize=16;fontColor=#FFFFFF;align=center;fontStyle=1;spacing=5;arcSize=7;perimeterSpacing=2;" parent="1" vertex="1">
          <mxGeometry x="880" y="-360.5" width="240" height="40" as="geometry" />
        </mxCell>
        <mxCell id="1UIoT6ySWnRTdIGvDfuI-1918" value="" style="edgeStyle=orthogonalEdgeStyle;rounded=0;orthogonalLoop=1;jettySize=auto;html=1;" parent="1" source="1UIoT6ySWnRTdIGvDfuI-1808" target="1UIoT6ySWnRTdIGvDfuI-1809" edge="1">
          <mxGeometry relative="1" as="geometry" />
        </mxCell>
        <mxCell id="1UIoT6ySWnRTdIGvDfuI-1808" value="실용주의 프로그래머" style="rounded=1;whiteSpace=wrap;html=1;shadow=0;labelBackgroundColor=none;strokeColor=none;strokeWidth=3;fillColor=#2F5B7C;fontFamily=Helvetica;fontSize=16;fontColor=#FFFFFF;align=center;fontStyle=1;spacing=5;arcSize=7;perimeterSpacing=2;" parent="1" vertex="1">
          <mxGeometry x="880" y="-280.5" width="240" height="40" as="geometry" />
        </mxCell>
        <mxCell id="1UIoT6ySWnRTdIGvDfuI-1919" value="" style="edgeStyle=orthogonalEdgeStyle;rounded=0;orthogonalLoop=1;jettySize=auto;html=1;" parent="1" source="1UIoT6ySWnRTdIGvDfuI-1809" target="1UIoT6ySWnRTdIGvDfuI-1810" edge="1">
          <mxGeometry relative="1" as="geometry" />
        </mxCell>
        <mxCell id="1UIoT6ySWnRTdIGvDfuI-1809" value="커리어 스킬" style="rounded=1;whiteSpace=wrap;html=1;shadow=0;labelBackgroundColor=none;strokeColor=none;strokeWidth=3;fillColor=#2F5B7C;fontFamily=Helvetica;fontSize=16;fontColor=#FFFFFF;align=center;fontStyle=1;spacing=5;arcSize=7;perimeterSpacing=2;" parent="1" vertex="1">
          <mxGeometry x="920" y="-200.5" width="160" height="40" as="geometry" />
        </mxCell>
        <mxCell id="1UIoT6ySWnRTdIGvDfuI-1810" value="매니지먼트 3.0" style="rounded=1;whiteSpace=wrap;html=1;shadow=0;labelBackgroundColor=none;strokeColor=none;strokeWidth=3;fillColor=#2F5B7C;fontFamily=Helvetica;fontSize=16;fontColor=#FFFFFF;align=center;fontStyle=1;spacing=5;arcSize=7;perimeterSpacing=2;" parent="1" vertex="1">
          <mxGeometry x="920" y="-120.5" width="160" height="40" as="geometry" />
        </mxCell>
        <mxCell id="1UIoT6ySWnRTdIGvDfuI-1904" value="" style="edgeStyle=orthogonalEdgeStyle;rounded=0;orthogonalLoop=1;jettySize=auto;html=1;" parent="1" source="1UIoT6ySWnRTdIGvDfuI-1811" target="1UIoT6ySWnRTdIGvDfuI-1812" edge="1">
          <mxGeometry relative="1" as="geometry" />
        </mxCell>
        <mxCell id="1UIoT6ySWnRTdIGvDfuI-1811" value="Test" style="rounded=1;whiteSpace=wrap;html=1;shadow=0;labelBackgroundColor=none;strokeColor=none;strokeWidth=3;fillColor=#64bbe2;fontFamily=Helvetica;fontSize=14;fontColor=#FFFFFF;align=center;spacing=5;arcSize=7;perimeterSpacing=2;" parent="1" vertex="1">
          <mxGeometry x="440" y="-901" width="80" height="40" as="geometry" />
        </mxCell>
        <mxCell id="1UIoT6ySWnRTdIGvDfuI-1905" value="" style="edgeStyle=orthogonalEdgeStyle;rounded=0;orthogonalLoop=1;jettySize=auto;html=1;" parent="1" source="1UIoT6ySWnRTdIGvDfuI-1812" target="1UIoT6ySWnRTdIGvDfuI-1813" edge="1">
          <mxGeometry relative="1" as="geometry" />
        </mxCell>
        <mxCell id="1UIoT6ySWnRTdIGvDfuI-1812" value="CMake" style="rounded=1;whiteSpace=wrap;html=1;shadow=0;labelBackgroundColor=none;strokeColor=none;strokeWidth=3;fillColor=#64bbe2;fontFamily=Helvetica;fontSize=14;fontColor=#FFFFFF;align=center;spacing=5;arcSize=7;perimeterSpacing=2;" parent="1" vertex="1">
          <mxGeometry x="440" y="-821" width="80" height="40" as="geometry" />
        </mxCell>
        <mxCell id="1UIoT6ySWnRTdIGvDfuI-1906" value="" style="edgeStyle=orthogonalEdgeStyle;rounded=0;orthogonalLoop=1;jettySize=auto;html=1;" parent="1" source="1UIoT6ySWnRTdIGvDfuI-1813" target="1UIoT6ySWnRTdIGvDfuI-1814" edge="1">
          <mxGeometry relative="1" as="geometry" />
        </mxCell>
        <mxCell id="1UIoT6ySWnRTdIGvDfuI-1813" value="OpenGL" style="rounded=1;whiteSpace=wrap;html=1;shadow=0;labelBackgroundColor=none;strokeColor=none;strokeWidth=3;fillColor=#64bbe2;fontFamily=Helvetica;fontSize=14;fontColor=#FFFFFF;align=center;spacing=5;arcSize=7;perimeterSpacing=2;" parent="1" vertex="1">
          <mxGeometry x="440" y="-741" width="80" height="40" as="geometry" />
        </mxCell>
        <mxCell id="1UIoT6ySWnRTdIGvDfuI-1907" value="" style="edgeStyle=orthogonalEdgeStyle;rounded=0;orthogonalLoop=1;jettySize=auto;html=1;" parent="1" source="1UIoT6ySWnRTdIGvDfuI-1814" target="1UIoT6ySWnRTdIGvDfuI-1815" edge="1">
          <mxGeometry relative="1" as="geometry" />
        </mxCell>
        <mxCell id="1UIoT6ySWnRTdIGvDfuI-1814" value="IO" style="rounded=1;whiteSpace=wrap;html=1;shadow=0;labelBackgroundColor=none;strokeColor=none;strokeWidth=3;fillColor=#64bbe2;fontFamily=Helvetica;fontSize=14;fontColor=#FFFFFF;align=center;spacing=5;arcSize=7;perimeterSpacing=2;" parent="1" vertex="1">
          <mxGeometry x="440" y="-661" width="80" height="40" as="geometry" />
        </mxCell>
        <mxCell id="1UIoT6ySWnRTdIGvDfuI-1908" value="" style="edgeStyle=orthogonalEdgeStyle;rounded=0;orthogonalLoop=1;jettySize=auto;html=1;" parent="1" source="1UIoT6ySWnRTdIGvDfuI-1815" target="1UIoT6ySWnRTdIGvDfuI-1816" edge="1">
          <mxGeometry relative="1" as="geometry" />
        </mxCell>
        <mxCell id="1UIoT6ySWnRTdIGvDfuI-1815" value="C++" style="rounded=1;whiteSpace=wrap;html=1;shadow=0;labelBackgroundColor=none;strokeColor=none;strokeWidth=3;fillColor=#64bbe2;fontFamily=Helvetica;fontSize=14;fontColor=#FFFFFF;align=center;spacing=5;arcSize=7;perimeterSpacing=2;" parent="1" vertex="1">
          <mxGeometry x="440" y="-581" width="80" height="40" as="geometry" />
        </mxCell>
        <mxCell id="1UIoT6ySWnRTdIGvDfuI-1901" value="" style="edgeStyle=orthogonalEdgeStyle;rounded=0;orthogonalLoop=1;jettySize=auto;html=1;" parent="1" source="1UIoT6ySWnRTdIGvDfuI-1816" target="1UIoT6ySWnRTdIGvDfuI-1817" edge="1">
          <mxGeometry relative="1" as="geometry" />
        </mxCell>
        <mxCell id="1UIoT6ySWnRTdIGvDfuI-1816" value="Solver" style="rounded=1;whiteSpace=wrap;html=1;shadow=0;labelBackgroundColor=none;strokeColor=none;strokeWidth=3;fillColor=#64bbe2;fontFamily=Helvetica;fontSize=14;fontColor=#FFFFFF;align=center;spacing=5;arcSize=7;perimeterSpacing=2;" parent="1" vertex="1">
          <mxGeometry x="440" y="-501" width="80" height="40" as="geometry" />
        </mxCell>
        <mxCell id="1UIoT6ySWnRTdIGvDfuI-1900" value="" style="edgeStyle=orthogonalEdgeStyle;rounded=0;orthogonalLoop=1;jettySize=auto;html=1;" parent="1" source="1UIoT6ySWnRTdIGvDfuI-1817" target="1UIoT6ySWnRTdIGvDfuI-1818" edge="1">
          <mxGeometry relative="1" as="geometry" />
        </mxCell>
        <mxCell id="1UIoT6ySWnRTdIGvDfuI-1817" value="Multi platform" style="rounded=1;whiteSpace=wrap;html=1;shadow=0;labelBackgroundColor=none;strokeColor=none;strokeWidth=3;fillColor=#64bbe2;fontFamily=Helvetica;fontSize=14;fontColor=#FFFFFF;align=center;spacing=5;arcSize=7;perimeterSpacing=2;" parent="1" vertex="1">
          <mxGeometry x="400" y="-421" width="160" height="40" as="geometry" />
        </mxCell>
        <mxCell id="1UIoT6ySWnRTdIGvDfuI-1899" value="" style="edgeStyle=orthogonalEdgeStyle;rounded=0;orthogonalLoop=1;jettySize=auto;html=1;" parent="1" source="1UIoT6ySWnRTdIGvDfuI-1818" target="1UIoT6ySWnRTdIGvDfuI-1896" edge="1">
          <mxGeometry relative="1" as="geometry" />
        </mxCell>
        <mxCell id="1UIoT6ySWnRTdIGvDfuI-1818" value="Latex Beamer" style="rounded=1;whiteSpace=wrap;html=1;shadow=0;labelBackgroundColor=none;strokeColor=none;strokeWidth=3;fillColor=#64bbe2;fontFamily=Helvetica;fontSize=14;fontColor=#FFFFFF;align=center;spacing=5;arcSize=7;perimeterSpacing=2;" parent="1" vertex="1">
          <mxGeometry x="400" y="-341" width="160" height="39.5" as="geometry" />
        </mxCell>
        <mxCell id="1UIoT6ySWnRTdIGvDfuI-1932" value="" style="edgeStyle=orthogonalEdgeStyle;rounded=0;orthogonalLoop=1;jettySize=auto;html=1;" parent="1" source="1UIoT6ySWnRTdIGvDfuI-1820" target="1UIoT6ySWnRTdIGvDfuI-1821" edge="1">
          <mxGeometry relative="1" as="geometry" />
        </mxCell>
        <mxCell id="1UIoT6ySWnRTdIGvDfuI-1820" value="정역학" style="rounded=1;whiteSpace=wrap;html=1;shadow=0;labelBackgroundColor=none;strokeColor=none;strokeWidth=3;fillColor=#2F5B7C;fontFamily=Helvetica;fontSize=16;fontColor=#FFFFFF;align=center;fontStyle=1;spacing=5;arcSize=7;perimeterSpacing=2;" parent="1" vertex="1">
          <mxGeometry x="1630" y="-1080" width="80" height="40" as="geometry" />
        </mxCell>
        <mxCell id="1UIoT6ySWnRTdIGvDfuI-1933" value="" style="edgeStyle=orthogonalEdgeStyle;rounded=0;orthogonalLoop=1;jettySize=auto;html=1;" parent="1" source="1UIoT6ySWnRTdIGvDfuI-1821" target="1UIoT6ySWnRTdIGvDfuI-1822" edge="1">
          <mxGeometry relative="1" as="geometry" />
        </mxCell>
        <mxCell id="1UIoT6ySWnRTdIGvDfuI-1821" value="동역학" style="rounded=1;whiteSpace=wrap;html=1;shadow=0;labelBackgroundColor=none;strokeColor=none;strokeWidth=3;fillColor=#2F5B7C;fontFamily=Helvetica;fontSize=16;fontColor=#FFFFFF;align=center;fontStyle=1;spacing=5;arcSize=7;perimeterSpacing=2;" parent="1" vertex="1">
          <mxGeometry x="1630" y="-1000" width="80" height="40" as="geometry" />
        </mxCell>
        <mxCell id="1UIoT6ySWnRTdIGvDfuI-1934" value="" style="edgeStyle=orthogonalEdgeStyle;rounded=0;orthogonalLoop=1;jettySize=auto;html=1;" parent="1" source="1UIoT6ySWnRTdIGvDfuI-1822" target="1UIoT6ySWnRTdIGvDfuI-1823" edge="1">
          <mxGeometry relative="1" as="geometry" />
        </mxCell>
        <mxCell id="1UIoT6ySWnRTdIGvDfuI-1822" value="열역학" style="rounded=1;whiteSpace=wrap;html=1;shadow=0;labelBackgroundColor=none;strokeColor=none;strokeWidth=3;fillColor=#2F5B7C;fontFamily=Helvetica;fontSize=16;fontColor=#FFFFFF;align=center;fontStyle=1;spacing=5;arcSize=7;perimeterSpacing=2;" parent="1" vertex="1">
          <mxGeometry x="1630" y="-920" width="80" height="40" as="geometry" />
        </mxCell>
        <mxCell id="1UIoT6ySWnRTdIGvDfuI-1935" value="" style="edgeStyle=orthogonalEdgeStyle;rounded=0;orthogonalLoop=1;jettySize=auto;html=1;" parent="1" source="1UIoT6ySWnRTdIGvDfuI-1823" target="1UIoT6ySWnRTdIGvDfuI-1828" edge="1">
          <mxGeometry relative="1" as="geometry" />
        </mxCell>
        <mxCell id="1UIoT6ySWnRTdIGvDfuI-1823" value="유체역학" style="rounded=1;whiteSpace=wrap;html=1;shadow=0;labelBackgroundColor=none;strokeColor=none;strokeWidth=3;fillColor=#2F5B7C;fontFamily=Helvetica;fontSize=16;fontColor=#FFFFFF;align=center;fontStyle=1;spacing=5;arcSize=7;perimeterSpacing=2;" parent="1" vertex="1">
          <mxGeometry x="1630" y="-840" width="80" height="40" as="geometry" />
        </mxCell>
        <mxCell id="1UIoT6ySWnRTdIGvDfuI-1936" value="" style="edgeStyle=orthogonalEdgeStyle;rounded=0;orthogonalLoop=1;jettySize=auto;html=1;" parent="1" source="1UIoT6ySWnRTdIGvDfuI-1824" target="1UIoT6ySWnRTdIGvDfuI-1825" edge="1">
          <mxGeometry relative="1" as="geometry" />
        </mxCell>
        <mxCell id="1UIoT6ySWnRTdIGvDfuI-1824" value="연속체 역학" style="rounded=1;whiteSpace=wrap;html=1;shadow=0;labelBackgroundColor=none;strokeColor=none;strokeWidth=3;fillColor=#2F5B7C;fontFamily=Helvetica;fontSize=16;fontColor=#FFFFFF;align=center;fontStyle=1;spacing=5;arcSize=7;perimeterSpacing=2;" parent="1" vertex="1">
          <mxGeometry x="1790" y="-920" width="160" height="40" as="geometry" />
        </mxCell>
        <mxCell id="1UIoT6ySWnRTdIGvDfuI-1937" value="" style="edgeStyle=orthogonalEdgeStyle;rounded=0;orthogonalLoop=1;jettySize=auto;html=1;" parent="1" source="1UIoT6ySWnRTdIGvDfuI-1825" target="1UIoT6ySWnRTdIGvDfuI-1839" edge="1">
          <mxGeometry relative="1" as="geometry" />
        </mxCell>
        <mxCell id="1UIoT6ySWnRTdIGvDfuI-1825" value="비선형 연속체 역학" style="rounded=1;whiteSpace=wrap;html=1;shadow=0;labelBackgroundColor=none;strokeColor=none;strokeWidth=3;fillColor=#2F5B7C;fontFamily=Helvetica;fontSize=16;fontColor=#FFFFFF;align=center;fontStyle=1;spacing=5;arcSize=7;perimeterSpacing=2;" parent="1" vertex="1">
          <mxGeometry x="1790" y="-840" width="160" height="40" as="geometry" />
        </mxCell>
        <mxCell id="1UIoT6ySWnRTdIGvDfuI-1827" value="FEM" style="rounded=1;whiteSpace=wrap;html=1;shadow=0;labelBackgroundColor=none;strokeColor=none;strokeWidth=3;fillColor=#2F5B7C;fontFamily=Helvetica;fontSize=16;fontColor=#FFFFFF;align=center;fontStyle=1;spacing=5;arcSize=7;perimeterSpacing=2;" parent="1" vertex="1">
          <mxGeometry x="2030" y="-840" width="80" height="40" as="geometry" />
        </mxCell>
        <mxCell id="1UIoT6ySWnRTdIGvDfuI-1828" value="CFD" style="rounded=1;whiteSpace=wrap;html=1;shadow=0;labelBackgroundColor=none;strokeColor=none;strokeWidth=3;fillColor=#2F5B7C;fontFamily=Helvetica;fontSize=16;fontColor=#FFFFFF;align=center;fontStyle=1;spacing=5;arcSize=7;perimeterSpacing=2;" parent="1" vertex="1">
          <mxGeometry x="1630" y="-760" width="80" height="40" as="geometry" />
        </mxCell>
        <mxCell id="1UIoT6ySWnRTdIGvDfuI-1890" value="" style="edgeStyle=orthogonalEdgeStyle;rounded=0;orthogonalLoop=1;jettySize=auto;html=1;" parent="1" source="1UIoT6ySWnRTdIGvDfuI-1829" target="1UIoT6ySWnRTdIGvDfuI-1830" edge="1">
          <mxGeometry relative="1" as="geometry" />
        </mxCell>
        <mxCell id="1UIoT6ySWnRTdIGvDfuI-1829" value="Codim - IPC" style="rounded=1;whiteSpace=wrap;html=1;shadow=0;labelBackgroundColor=none;strokeColor=none;strokeWidth=3;fillColor=#2F5B7C;fontFamily=Helvetica;fontSize=16;fontColor=#FFFFFF;align=center;fontStyle=1;spacing=5;arcSize=7;perimeterSpacing=2;" parent="1" vertex="1">
          <mxGeometry x="-80" y="-760" width="160" height="40" as="geometry" />
        </mxCell>
        <mxCell id="1UIoT6ySWnRTdIGvDfuI-1891" value="" style="edgeStyle=orthogonalEdgeStyle;rounded=0;orthogonalLoop=1;jettySize=auto;html=1;" parent="1" source="1UIoT6ySWnRTdIGvDfuI-1830" target="1UIoT6ySWnRTdIGvDfuI-1831" edge="1">
          <mxGeometry relative="1" as="geometry" />
        </mxCell>
        <mxCell id="1UIoT6ySWnRTdIGvDfuI-1830" value="IDP" style="rounded=1;whiteSpace=wrap;html=1;shadow=0;labelBackgroundColor=none;strokeColor=none;strokeWidth=3;fillColor=#2F5B7C;fontFamily=Helvetica;fontSize=16;fontColor=#FFFFFF;align=center;fontStyle=1;spacing=5;arcSize=7;perimeterSpacing=2;" parent="1" vertex="1">
          <mxGeometry x="-80" y="-680" width="160" height="40" as="geometry" />
        </mxCell>
        <mxCell id="1UIoT6ySWnRTdIGvDfuI-1892" style="edgeStyle=orthogonalEdgeStyle;rounded=0;orthogonalLoop=1;jettySize=auto;html=1;entryX=0.5;entryY=0;entryDx=0;entryDy=0;" parent="1" source="1UIoT6ySWnRTdIGvDfuI-1831" target="1UIoT6ySWnRTdIGvDfuI-1835" edge="1">
          <mxGeometry relative="1" as="geometry" />
        </mxCell>
        <mxCell id="1UIoT6ySWnRTdIGvDfuI-1831" value="rigid - IPC" style="rounded=1;whiteSpace=wrap;html=1;shadow=0;labelBackgroundColor=none;strokeColor=none;strokeWidth=3;fillColor=#2F5B7C;fontFamily=Helvetica;fontSize=16;fontColor=#FFFFFF;align=center;fontStyle=1;spacing=5;arcSize=7;perimeterSpacing=2;" parent="1" vertex="1">
          <mxGeometry x="-80" y="-600" width="160" height="40" as="geometry" />
        </mxCell>
        <mxCell id="1UIoT6ySWnRTdIGvDfuI-1887" value="" style="edgeStyle=orthogonalEdgeStyle;rounded=0;orthogonalLoop=1;jettySize=auto;html=1;" parent="1" source="1UIoT6ySWnRTdIGvDfuI-1832" target="1UIoT6ySWnRTdIGvDfuI-1833" edge="1">
          <mxGeometry relative="1" as="geometry" />
        </mxCell>
        <mxCell id="1UIoT6ySWnRTdIGvDfuI-1832" value="TetWild" style="rounded=1;whiteSpace=wrap;html=1;shadow=0;labelBackgroundColor=none;strokeColor=none;strokeWidth=3;fillColor=#2F5B7C;fontFamily=Helvetica;fontSize=16;fontColor=#FFFFFF;align=center;fontStyle=1;spacing=5;arcSize=7;perimeterSpacing=2;" parent="1" vertex="1">
          <mxGeometry x="-40" y="-1000" width="80" height="40" as="geometry" />
        </mxCell>
        <mxCell id="1UIoT6ySWnRTdIGvDfuI-1888" value="" style="edgeStyle=orthogonalEdgeStyle;rounded=0;orthogonalLoop=1;jettySize=auto;html=1;" parent="1" source="1UIoT6ySWnRTdIGvDfuI-1833" target="1UIoT6ySWnRTdIGvDfuI-1834" edge="1">
          <mxGeometry relative="1" as="geometry" />
        </mxCell>
        <mxCell id="1UIoT6ySWnRTdIGvDfuI-1833" value="fTetWild" style="rounded=1;whiteSpace=wrap;html=1;shadow=0;labelBackgroundColor=none;strokeColor=none;strokeWidth=3;fillColor=#2F5B7C;fontFamily=Helvetica;fontSize=16;fontColor=#FFFFFF;align=center;fontStyle=1;spacing=5;arcSize=7;perimeterSpacing=2;" parent="1" vertex="1">
          <mxGeometry x="-40" y="-920" width="80" height="40" as="geometry" />
        </mxCell>
        <mxCell id="1UIoT6ySWnRTdIGvDfuI-1889" value="" style="edgeStyle=orthogonalEdgeStyle;rounded=0;orthogonalLoop=1;jettySize=auto;html=1;" parent="1" source="1UIoT6ySWnRTdIGvDfuI-1834" target="1UIoT6ySWnRTdIGvDfuI-1829" edge="1">
          <mxGeometry relative="1" as="geometry" />
        </mxCell>
        <mxCell id="1UIoT6ySWnRTdIGvDfuI-1834" value="Deformation Transfer" style="rounded=1;whiteSpace=wrap;html=1;shadow=0;labelBackgroundColor=none;strokeColor=none;strokeWidth=3;fillColor=#2F5B7C;fontFamily=Helvetica;fontSize=16;fontColor=#FFFFFF;align=center;fontStyle=1;spacing=5;arcSize=7;perimeterSpacing=2;" parent="1" vertex="1">
          <mxGeometry x="-80" y="-840" width="160" height="40" as="geometry" />
        </mxCell>
        <mxCell id="1UIoT6ySWnRTdIGvDfuI-1835" value="MPM" style="rounded=1;whiteSpace=wrap;html=1;shadow=0;labelBackgroundColor=none;strokeColor=none;strokeWidth=3;fillColor=#2F5B7C;fontFamily=Helvetica;fontSize=16;fontColor=#FFFFFF;align=center;fontStyle=1;spacing=5;arcSize=7;perimeterSpacing=2;" parent="1" vertex="1">
          <mxGeometry x="-40" y="1040" width="80" height="40" as="geometry" />
        </mxCell>
        <mxCell id="1UIoT6ySWnRTdIGvDfuI-1883" style="edgeStyle=orthogonalEdgeStyle;rounded=0;orthogonalLoop=1;jettySize=auto;html=1;" parent="1" source="1UIoT6ySWnRTdIGvDfuI-1837" target="1UIoT6ySWnRTdIGvDfuI-1787" edge="1">
          <mxGeometry relative="1" as="geometry" />
        </mxCell>
        <mxCell id="1UIoT6ySWnRTdIGvDfuI-1837" value="Unreal plugin" style="rounded=1;whiteSpace=wrap;html=1;shadow=0;labelBackgroundColor=none;strokeColor=none;strokeWidth=3;fillColor=#2F5B7C;fontFamily=Helvetica;fontSize=16;fontColor=#FFFFFF;align=center;fontStyle=1;spacing=5;arcSize=7;perimeterSpacing=2;" parent="1" vertex="1">
          <mxGeometry x="-340" y="400" width="120" height="40" as="geometry" />
        </mxCell>
        <mxCell id="1UIoT6ySWnRTdIGvDfuI-1839" value="머신 러닝" style="rounded=1;whiteSpace=wrap;html=1;shadow=0;labelBackgroundColor=none;strokeColor=none;strokeWidth=3;fillColor=#2F5B7C;fontFamily=Helvetica;fontSize=16;fontColor=#FFFFFF;align=center;fontStyle=1;spacing=5;arcSize=7;perimeterSpacing=2;" parent="1" vertex="1">
          <mxGeometry x="1830" y="-680" width="80" height="40" as="geometry" />
        </mxCell>
        <mxCell id="1UIoT6ySWnRTdIGvDfuI-1930" value="" style="edgeStyle=orthogonalEdgeStyle;rounded=0;orthogonalLoop=1;jettySize=auto;html=1;" parent="1" source="1UIoT6ySWnRTdIGvDfuI-1840" target="1UIoT6ySWnRTdIGvDfuI-1841" edge="1">
          <mxGeometry relative="1" as="geometry" />
        </mxCell>
        <mxCell id="1UIoT6ySWnRTdIGvDfuI-1840" value="Modern CMake" style="rounded=1;whiteSpace=wrap;html=1;shadow=0;labelBackgroundColor=none;strokeColor=none;strokeWidth=3;fillColor=#2F5B7C;fontFamily=Helvetica;fontSize=16;fontColor=#FFFFFF;align=center;fontStyle=1;spacing=5;arcSize=7;perimeterSpacing=2;" parent="1" vertex="1">
          <mxGeometry x="-360" y="-120.5" width="160" height="40" as="geometry" />
        </mxCell>
        <mxCell id="Ud6QV0cFq9waYj0nxRUX-1773" value="" style="edgeStyle=orthogonalEdgeStyle;rounded=0;orthogonalLoop=1;jettySize=auto;html=1;" edge="1" parent="1" source="1UIoT6ySWnRTdIGvDfuI-1841" target="Ud6QV0cFq9waYj0nxRUX-1772">
          <mxGeometry relative="1" as="geometry" />
        </mxCell>
        <mxCell id="1UIoT6ySWnRTdIGvDfuI-1841" value="Modern C#" style="rounded=1;whiteSpace=wrap;html=1;shadow=0;labelBackgroundColor=none;strokeColor=none;strokeWidth=3;fillColor=#2F5B7C;fontFamily=Helvetica;fontSize=16;fontColor=#FFFFFF;align=center;fontStyle=1;spacing=5;arcSize=7;perimeterSpacing=2;" parent="1" vertex="1">
          <mxGeometry x="-360" y="-40" width="160" height="40" as="geometry" />
        </mxCell>
        <mxCell id="1UIoT6ySWnRTdIGvDfuI-1878" value="" style="edgeStyle=orthogonalEdgeStyle;rounded=0;orthogonalLoop=1;jettySize=auto;html=1;" parent="1" source="1UIoT6ySWnRTdIGvDfuI-1842" target="1UIoT6ySWnRTdIGvDfuI-1843" edge="1">
          <mxGeometry relative="1" as="geometry" />
        </mxCell>
        <mxCell id="1UIoT6ySWnRTdIGvDfuI-1842" value="Windows Server" style="rounded=1;whiteSpace=wrap;html=1;shadow=0;labelBackgroundColor=none;strokeColor=none;strokeWidth=3;fillColor=#2F5B7C;fontFamily=Helvetica;fontSize=16;fontColor=#FFFFFF;align=center;fontStyle=1;spacing=5;arcSize=7;perimeterSpacing=2;" parent="1" vertex="1">
          <mxGeometry x="-340" y="1560" width="120" height="40" as="geometry" />
        </mxCell>
        <mxCell id="1UIoT6ySWnRTdIGvDfuI-1879" value="" style="edgeStyle=orthogonalEdgeStyle;rounded=0;orthogonalLoop=1;jettySize=auto;html=1;" parent="1" source="1UIoT6ySWnRTdIGvDfuI-1843" target="1UIoT6ySWnRTdIGvDfuI-1844" edge="1">
          <mxGeometry relative="1" as="geometry" />
        </mxCell>
        <mxCell id="1UIoT6ySWnRTdIGvDfuI-1843" value="SQL Server" style="rounded=1;whiteSpace=wrap;html=1;shadow=0;labelBackgroundColor=none;strokeColor=none;strokeWidth=3;fillColor=#2F5B7C;fontFamily=Helvetica;fontSize=16;fontColor=#FFFFFF;align=center;fontStyle=1;spacing=5;arcSize=7;perimeterSpacing=2;" parent="1" vertex="1">
          <mxGeometry x="-340" y="1640" width="120" height="40" as="geometry" />
        </mxCell>
        <mxCell id="1UIoT6ySWnRTdIGvDfuI-1880" value="" style="edgeStyle=orthogonalEdgeStyle;rounded=0;orthogonalLoop=1;jettySize=auto;html=1;" parent="1" source="1UIoT6ySWnRTdIGvDfuI-1844" target="1UIoT6ySWnRTdIGvDfuI-1845" edge="1">
          <mxGeometry relative="1" as="geometry" />
        </mxCell>
        <mxCell id="1UIoT6ySWnRTdIGvDfuI-1844" value="Azure" style="rounded=1;whiteSpace=wrap;html=1;shadow=0;labelBackgroundColor=none;strokeColor=none;strokeWidth=3;fillColor=#2F5B7C;fontFamily=Helvetica;fontSize=16;fontColor=#FFFFFF;align=center;fontStyle=1;spacing=5;arcSize=7;perimeterSpacing=2;" parent="1" vertex="1">
          <mxGeometry x="-340" y="1720" width="120" height="40" as="geometry" />
        </mxCell>
        <mxCell id="1UIoT6ySWnRTdIGvDfuI-1881" value="" style="edgeStyle=orthogonalEdgeStyle;rounded=0;orthogonalLoop=1;jettySize=auto;html=1;" parent="1" source="1UIoT6ySWnRTdIGvDfuI-1845" target="1UIoT6ySWnRTdIGvDfuI-1855" edge="1">
          <mxGeometry relative="1" as="geometry" />
        </mxCell>
        <mxCell id="1UIoT6ySWnRTdIGvDfuI-1845" value="AWS" style="rounded=1;whiteSpace=wrap;html=1;shadow=0;labelBackgroundColor=none;strokeColor=none;strokeWidth=3;fillColor=#2F5B7C;fontFamily=Helvetica;fontSize=16;fontColor=#FFFFFF;align=center;fontStyle=1;spacing=5;arcSize=7;perimeterSpacing=2;" parent="1" vertex="1">
          <mxGeometry x="-340" y="1800" width="120" height="40" as="geometry" />
        </mxCell>
        <mxCell id="1UIoT6ySWnRTdIGvDfuI-1926" value="" style="edgeStyle=orthogonalEdgeStyle;rounded=0;orthogonalLoop=1;jettySize=auto;html=1;" parent="1" source="1UIoT6ySWnRTdIGvDfuI-1846" target="1UIoT6ySWnRTdIGvDfuI-1798" edge="1">
          <mxGeometry relative="1" as="geometry" />
        </mxCell>
        <mxCell id="1UIoT6ySWnRTdIGvDfuI-1846" value="CUDA" style="rounded=1;whiteSpace=wrap;html=1;shadow=0;labelBackgroundColor=none;strokeColor=none;strokeWidth=3;fillColor=#2F5B7C;fontFamily=Helvetica;fontSize=16;fontColor=#FFFFFF;align=center;fontStyle=1;spacing=5;arcSize=7;perimeterSpacing=2;" parent="1" vertex="1">
          <mxGeometry x="-320" y="-600" width="80" height="40" as="geometry" />
        </mxCell>
        <mxCell id="1UIoT6ySWnRTdIGvDfuI-1877" value="" style="edgeStyle=orthogonalEdgeStyle;rounded=0;orthogonalLoop=1;jettySize=auto;html=1;" parent="1" source="1UIoT6ySWnRTdIGvDfuI-1847" target="1UIoT6ySWnRTdIGvDfuI-1842" edge="1">
          <mxGeometry relative="1" as="geometry" />
        </mxCell>
        <mxCell id="1UIoT6ySWnRTdIGvDfuI-1847" value="Socket" style="rounded=1;whiteSpace=wrap;html=1;shadow=0;labelBackgroundColor=none;strokeColor=none;strokeWidth=3;fillColor=#2F5B7C;fontFamily=Helvetica;fontSize=16;fontColor=#FFFFFF;align=center;fontStyle=1;spacing=5;arcSize=7;perimeterSpacing=2;" parent="1" vertex="1">
          <mxGeometry x="-340" y="1480" width="120" height="40" as="geometry" />
        </mxCell>
        <mxCell id="1UIoT6ySWnRTdIGvDfuI-1885" value="" style="edgeStyle=orthogonalEdgeStyle;rounded=0;orthogonalLoop=1;jettySize=auto;html=1;" parent="1" source="1UIoT6ySWnRTdIGvDfuI-1848" target="1UIoT6ySWnRTdIGvDfuI-1849" edge="1">
          <mxGeometry relative="1" as="geometry" />
        </mxCell>
        <mxCell id="1UIoT6ySWnRTdIGvDfuI-1848" value="어셈블리" style="rounded=1;whiteSpace=wrap;html=1;shadow=0;labelBackgroundColor=none;strokeColor=none;strokeWidth=3;fillColor=#2F5B7C;fontFamily=Helvetica;fontSize=16;fontColor=#FFFFFF;align=center;fontStyle=1;spacing=5;arcSize=7;perimeterSpacing=2;" parent="1" vertex="1">
          <mxGeometry x="1200" y="1040" width="120" height="40" as="geometry" />
        </mxCell>
        <mxCell id="1UIoT6ySWnRTdIGvDfuI-1849" value="컴파일러" style="rounded=1;whiteSpace=wrap;html=1;shadow=0;labelBackgroundColor=none;strokeColor=none;strokeWidth=3;fillColor=#2F5B7C;fontFamily=Helvetica;fontSize=16;fontColor=#FFFFFF;align=center;fontStyle=1;spacing=5;arcSize=7;perimeterSpacing=2;" parent="1" vertex="1">
          <mxGeometry x="1200" y="1120" width="120" height="40" as="geometry" />
        </mxCell>
        <mxCell id="1UIoT6ySWnRTdIGvDfuI-1863" style="edgeStyle=orthogonalEdgeStyle;rounded=0;orthogonalLoop=1;jettySize=auto;html=1;exitX=0.5;exitY=1;exitDx=0;exitDy=0;entryX=0.5;entryY=0;entryDx=0;entryDy=0;" parent="1" source="1UIoT6ySWnRTdIGvDfuI-1850" target="1UIoT6ySWnRTdIGvDfuI-1851" edge="1">
          <mxGeometry relative="1" as="geometry" />
        </mxCell>
        <mxCell id="1UIoT6ySWnRTdIGvDfuI-1850" value="Window" style="rounded=1;whiteSpace=wrap;html=1;shadow=0;labelBackgroundColor=none;strokeColor=none;strokeWidth=3;fillColor=#2F5B7C;fontFamily=Helvetica;fontSize=16;fontColor=#FFFFFF;align=center;fontStyle=1;spacing=5;arcSize=7;perimeterSpacing=2;" parent="1" vertex="1">
          <mxGeometry x="1200" y="400" width="120" height="40" as="geometry" />
        </mxCell>
        <mxCell id="1UIoT6ySWnRTdIGvDfuI-1864" value="" style="edgeStyle=orthogonalEdgeStyle;rounded=0;orthogonalLoop=1;jettySize=auto;html=1;" parent="1" source="1UIoT6ySWnRTdIGvDfuI-1851" target="1UIoT6ySWnRTdIGvDfuI-1852" edge="1">
          <mxGeometry relative="1" as="geometry" />
        </mxCell>
        <mxCell id="1UIoT6ySWnRTdIGvDfuI-1851" value="Linux" style="rounded=1;whiteSpace=wrap;html=1;shadow=0;labelBackgroundColor=none;strokeColor=none;strokeWidth=3;fillColor=#2F5B7C;fontFamily=Helvetica;fontSize=16;fontColor=#FFFFFF;align=center;fontStyle=1;spacing=5;arcSize=7;perimeterSpacing=2;" parent="1" vertex="1">
          <mxGeometry x="1200" y="480" width="120" height="40" as="geometry" />
        </mxCell>
        <mxCell id="1UIoT6ySWnRTdIGvDfuI-1865" value="" style="edgeStyle=orthogonalEdgeStyle;rounded=0;orthogonalLoop=1;jettySize=auto;html=1;" parent="1" source="1UIoT6ySWnRTdIGvDfuI-1852" target="1UIoT6ySWnRTdIGvDfuI-1853" edge="1">
          <mxGeometry relative="1" as="geometry" />
        </mxCell>
        <mxCell id="1UIoT6ySWnRTdIGvDfuI-1852" value="Mac" style="rounded=1;whiteSpace=wrap;html=1;shadow=0;labelBackgroundColor=none;strokeColor=none;strokeWidth=3;fillColor=#2F5B7C;fontFamily=Helvetica;fontSize=16;fontColor=#FFFFFF;align=center;fontStyle=1;spacing=5;arcSize=7;perimeterSpacing=2;" parent="1" vertex="1">
          <mxGeometry x="1200" y="560" width="120" height="40" as="geometry" />
        </mxCell>
        <mxCell id="1UIoT6ySWnRTdIGvDfuI-1884" style="edgeStyle=orthogonalEdgeStyle;rounded=0;orthogonalLoop=1;jettySize=auto;html=1;exitX=0.5;exitY=1;exitDx=0;exitDy=0;" parent="1" source="1UIoT6ySWnRTdIGvDfuI-1853" target="1UIoT6ySWnRTdIGvDfuI-1848" edge="1">
          <mxGeometry relative="1" as="geometry">
            <mxPoint x="1260" y="879.4999999999995" as="sourcePoint" />
          </mxGeometry>
        </mxCell>
        <mxCell id="1UIoT6ySWnRTdIGvDfuI-1853" value="Android" style="rounded=1;whiteSpace=wrap;html=1;shadow=0;labelBackgroundColor=none;strokeColor=none;strokeWidth=3;fillColor=#2F5B7C;fontFamily=Helvetica;fontSize=16;fontColor=#FFFFFF;align=center;fontStyle=1;spacing=5;arcSize=7;perimeterSpacing=2;" parent="1" vertex="1">
          <mxGeometry x="1200" y="640" width="120" height="40" as="geometry" />
        </mxCell>
        <mxCell id="1UIoT6ySWnRTdIGvDfuI-1924" value="" style="edgeStyle=orthogonalEdgeStyle;rounded=0;orthogonalLoop=1;jettySize=auto;html=1;" parent="1" source="1UIoT6ySWnRTdIGvDfuI-1854" target="1UIoT6ySWnRTdIGvDfuI-1894" edge="1">
          <mxGeometry relative="1" as="geometry" />
        </mxCell>
        <mxCell id="1UIoT6ySWnRTdIGvDfuI-1854" value="OpenMP" style="rounded=1;whiteSpace=wrap;html=1;shadow=0;labelBackgroundColor=none;strokeColor=none;strokeWidth=3;fillColor=#2F5B7C;fontFamily=Helvetica;fontSize=16;fontColor=#FFFFFF;align=center;fontStyle=1;spacing=5;arcSize=7;perimeterSpacing=2;" parent="1" vertex="1">
          <mxGeometry x="-360" y="-760" width="160" height="40" as="geometry" />
        </mxCell>
        <mxCell id="1UIoT6ySWnRTdIGvDfuI-1855" value="보안" style="rounded=1;whiteSpace=wrap;html=1;shadow=0;labelBackgroundColor=none;strokeColor=none;strokeWidth=3;fillColor=#2F5B7C;fontFamily=Helvetica;fontSize=16;fontColor=#FFFFFF;align=center;fontStyle=1;spacing=5;arcSize=7;perimeterSpacing=2;" parent="1" vertex="1">
          <mxGeometry x="-340" y="1880" width="120" height="40" as="geometry" />
        </mxCell>
        <mxCell id="1UIoT6ySWnRTdIGvDfuI-1856" value="Python" style="rounded=1;whiteSpace=wrap;html=1;shadow=0;labelBackgroundColor=none;strokeColor=none;strokeWidth=3;fillColor=#2F5B7C;fontFamily=Helvetica;fontSize=16;fontColor=#FFFFFF;align=center;fontStyle=1;spacing=5;arcSize=7;perimeterSpacing=2;" parent="1" vertex="1">
          <mxGeometry x="-360" y="-440" width="160" height="40" as="geometry" />
        </mxCell>
        <mxCell id="1UIoT6ySWnRTdIGvDfuI-1857" value="2024 전반" style="text;html=1;strokeColor=none;fillColor=none;align=center;verticalAlign=middle;whiteSpace=wrap;rounded=0;" parent="1" vertex="1">
          <mxGeometry x="-480" y="-1080" width="60" height="30" as="geometry" />
        </mxCell>
        <mxCell id="1UIoT6ySWnRTdIGvDfuI-1858" value="2025 전반" style="text;html=1;strokeColor=none;fillColor=none;align=center;verticalAlign=middle;whiteSpace=wrap;rounded=0;" parent="1" vertex="1">
          <mxGeometry x="-480" y="1040" width="60" height="30" as="geometry" />
        </mxCell>
        <mxCell id="1UIoT6ySWnRTdIGvDfuI-1861" value="" style="endArrow=none;html=1;rounded=0;fontStyle=1;strokeWidth=4;strokeColor=#000000;" parent="1" edge="1">
          <mxGeometry width="50" height="50" relative="1" as="geometry">
            <mxPoint x="2200" y="1000" as="sourcePoint" />
            <mxPoint x="-520" y="1000" as="targetPoint" />
          </mxGeometry>
        </mxCell>
        <mxCell id="1UIoT6ySWnRTdIGvDfuI-1862" value="2024 후반" style="text;html=1;strokeColor=none;fillColor=none;align=center;verticalAlign=middle;whiteSpace=wrap;rounded=0;" parent="1" vertex="1">
          <mxGeometry x="-480" y="400" width="60" height="30" as="geometry" />
        </mxCell>
        <mxCell id="1UIoT6ySWnRTdIGvDfuI-1867" value="" style="rounded=0;whiteSpace=wrap;html=1;fillStyle=auto;fillColor=none;strokeColor=#006600;strokeWidth=4;" parent="1" vertex="1">
          <mxGeometry x="1190" y="390" width="140" height="60" as="geometry" />
        </mxCell>
        <mxCell id="1UIoT6ySWnRTdIGvDfuI-1869" value="2025 후반" style="text;html=1;strokeColor=none;fillColor=none;align=center;verticalAlign=middle;whiteSpace=wrap;rounded=0;" parent="1" vertex="1">
          <mxGeometry x="-480" y="1241" width="60" height="30" as="geometry" />
        </mxCell>
        <mxCell id="1UIoT6ySWnRTdIGvDfuI-1872" value="" style="endArrow=none;html=1;rounded=0;fontStyle=1;strokeWidth=4;strokeColor=#000000;dashed=1;" parent="1" edge="1">
          <mxGeometry width="50" height="50" relative="1" as="geometry">
            <mxPoint x="2200" y="360" as="sourcePoint" />
            <mxPoint x="-520" y="360" as="targetPoint" />
          </mxGeometry>
        </mxCell>
        <mxCell id="1UIoT6ySWnRTdIGvDfuI-1873" value="" style="endArrow=none;html=1;rounded=0;fontStyle=1;strokeWidth=4;strokeColor=#000000;dashed=1;" parent="1" edge="1">
          <mxGeometry width="50" height="50" relative="1" as="geometry">
            <mxPoint x="2200" y="1200" as="sourcePoint" />
            <mxPoint x="-520" y="1200" as="targetPoint" />
          </mxGeometry>
        </mxCell>
        <mxCell id="1UIoT6ySWnRTdIGvDfuI-1925" value="" style="edgeStyle=orthogonalEdgeStyle;rounded=0;orthogonalLoop=1;jettySize=auto;html=1;" parent="1" source="1UIoT6ySWnRTdIGvDfuI-1894" target="1UIoT6ySWnRTdIGvDfuI-1846" edge="1">
          <mxGeometry relative="1" as="geometry" />
        </mxCell>
        <mxCell id="1UIoT6ySWnRTdIGvDfuI-1894" value="tbb" style="rounded=1;whiteSpace=wrap;html=1;shadow=0;labelBackgroundColor=none;strokeColor=none;strokeWidth=3;fillColor=#2F5B7C;fontFamily=Helvetica;fontSize=16;fontColor=#FFFFFF;align=center;fontStyle=1;spacing=5;arcSize=7;perimeterSpacing=2;" parent="1" vertex="1">
          <mxGeometry x="-320" y="-680" width="80" height="40" as="geometry" />
        </mxCell>
        <mxCell id="1UIoT6ySWnRTdIGvDfuI-1896" value="Unreal plugin" style="rounded=1;whiteSpace=wrap;html=1;shadow=0;labelBackgroundColor=none;strokeColor=none;strokeWidth=3;fillColor=#64bbe2;fontFamily=Helvetica;fontSize=14;fontColor=#FFFFFF;align=center;spacing=5;arcSize=7;perimeterSpacing=2;" parent="1" vertex="1">
          <mxGeometry x="400" y="-260.5" width="160" height="39.5" as="geometry" />
        </mxCell>
        <mxCell id="1UIoT6ySWnRTdIGvDfuI-1938" style="edgeStyle=orthogonalEdgeStyle;rounded=0;orthogonalLoop=1;jettySize=auto;html=1;exitX=0.5;exitY=1;exitDx=0;exitDy=0;entryX=0.5;entryY=0;entryDx=0;entryDy=0;" parent="1" target="1UIoT6ySWnRTdIGvDfuI-1824" edge="1">
          <mxGeometry relative="1" as="geometry">
            <mxPoint x="1690" y="-960" as="sourcePoint" />
            <mxPoint x="2110" y="-926" as="targetPoint" />
            <Array as="points">
              <mxPoint x="1690" y="-944" />
              <mxPoint x="1870" y="-944" />
            </Array>
          </mxGeometry>
        </mxCell>
        <mxCell id="1UIoT6ySWnRTdIGvDfuI-1939" style="edgeStyle=orthogonalEdgeStyle;rounded=0;orthogonalLoop=1;jettySize=auto;html=1;exitX=0.5;exitY=1;exitDx=0;exitDy=0;" parent="1" edge="1">
          <mxGeometry relative="1" as="geometry">
            <mxPoint x="1910" y="-880" as="sourcePoint" />
            <mxPoint x="2070" y="-840" as="targetPoint" />
            <Array as="points">
              <mxPoint x="1910" y="-864" />
              <mxPoint x="2070" y="-864" />
              <mxPoint x="2070" y="-842" />
            </Array>
          </mxGeometry>
        </mxCell>
        <mxCell id="1UIoT6ySWnRTdIGvDfuI-1941" value="" style="rounded=0;whiteSpace=wrap;html=1;fillStyle=auto;fillColor=none;strokeColor=#FF0000;strokeWidth=4;" parent="1" vertex="1">
          <mxGeometry x="-90" y="-770" width="180" height="60" as="geometry" />
        </mxCell>
        <mxCell id="1UIoT6ySWnRTdIGvDfuI-1942" value="" style="rounded=0;whiteSpace=wrap;html=1;fillStyle=auto;fillColor=none;strokeColor=#663300;strokeWidth=4;" parent="1" vertex="1">
          <mxGeometry x="910" y="-930.5" width="180" height="60" as="geometry" />
        </mxCell>
        <mxCell id="1UIoT6ySWnRTdIGvDfuI-1944" value="" style="rounded=0;whiteSpace=wrap;html=1;fillStyle=auto;fillColor=none;strokeColor=#FF0000;strokeWidth=4;" parent="1" vertex="1">
          <mxGeometry x="1420" y="-1090" width="100" height="60" as="geometry" />
        </mxCell>
        <mxCell id="XbgNboF_cxq9ioVnNA7d-1765" value="" style="edgeStyle=orthogonalEdgeStyle;rounded=0;orthogonalLoop=1;jettySize=auto;html=1;" parent="1" source="1UIoT6ySWnRTdIGvDfuI-1946" target="XbgNboF_cxq9ioVnNA7d-1762" edge="1">
          <mxGeometry relative="1" as="geometry" />
        </mxCell>
        <mxCell id="1UIoT6ySWnRTdIGvDfuI-1946" value="" style="rounded=0;whiteSpace=wrap;html=1;fillStyle=auto;fillColor=none;strokeColor=#663300;strokeWidth=4;" parent="1" vertex="1">
          <mxGeometry x="910" y="-850.5" width="180" height="60" as="geometry" />
        </mxCell>
        <mxCell id="XbgNboF_cxq9ioVnNA7d-1766" value="" style="edgeStyle=orthogonalEdgeStyle;rounded=0;orthogonalLoop=1;jettySize=auto;html=1;" parent="1" source="XbgNboF_cxq9ioVnNA7d-1762" target="1UIoT6ySWnRTdIGvDfuI-1800" edge="1">
          <mxGeometry relative="1" as="geometry" />
        </mxCell>
        <mxCell id="XbgNboF_cxq9ioVnNA7d-1762" value="코딩 컨벤션" style="rounded=1;whiteSpace=wrap;html=1;shadow=0;labelBackgroundColor=none;strokeColor=none;strokeWidth=3;fillColor=#2F5B7C;fontFamily=Helvetica;fontSize=16;fontColor=#FFFFFF;align=center;fontStyle=1;spacing=5;arcSize=7;perimeterSpacing=2;" parent="1" vertex="1">
          <mxGeometry x="920" y="-920.5" width="160" height="40" as="geometry" />
        </mxCell>
        <mxCell id="pdhlyir9m27gdUZ76-1i-1763" value="&lt;b&gt;문법 (2)&lt;/b&gt;" style="text;html=1;strokeColor=none;fillColor=none;align=center;verticalAlign=middle;whiteSpace=wrap;rounded=0;fontSize=30;" parent="1" vertex="1">
          <mxGeometry x="-340" y="-1160" width="120" height="30" as="geometry" />
        </mxCell>
        <mxCell id="pdhlyir9m27gdUZ76-1i-1764" value="&lt;b&gt;논문 (1 + 1)&lt;/b&gt;" style="text;html=1;strokeColor=none;fillColor=none;align=center;verticalAlign=middle;whiteSpace=wrap;rounded=0;fontSize=30;" parent="1" vertex="1">
          <mxGeometry x="-90" y="-1160" width="180" height="30" as="geometry" />
        </mxCell>
        <mxCell id="pdhlyir9m27gdUZ76-1i-1765" value="&lt;b&gt;코딩 (1 + 1)&lt;/b&gt;" style="text;html=1;strokeColor=none;fillColor=none;align=center;verticalAlign=middle;whiteSpace=wrap;rounded=0;fontSize=30;" parent="1" vertex="1">
          <mxGeometry x="400" y="-1160" width="170" height="30" as="geometry" />
        </mxCell>
        <mxCell id="pdhlyir9m27gdUZ76-1i-1766" value="&lt;b&gt;기법 (2)&lt;/b&gt;" style="text;html=1;strokeColor=none;fillColor=none;align=center;verticalAlign=middle;whiteSpace=wrap;rounded=0;fontSize=30;" parent="1" vertex="1">
          <mxGeometry x="935" y="-1160" width="130" height="30" as="geometry" />
        </mxCell>
        <mxCell id="pdhlyir9m27gdUZ76-1i-1768" value="&lt;b&gt;교과서 (1 + 1)&lt;/b&gt;" style="text;html=1;strokeColor=none;fillColor=none;align=center;verticalAlign=middle;whiteSpace=wrap;rounded=0;fontSize=30;" parent="1" vertex="1">
          <mxGeometry x="1220" y="-1160" width="210" height="30" as="geometry" />
        </mxCell>
        <mxCell id="pdhlyir9m27gdUZ76-1i-1771" value="" style="rounded=0;whiteSpace=wrap;html=1;fillStyle=auto;fillColor=none;strokeColor=#663300;strokeWidth=4;" parent="1" vertex="1">
          <mxGeometry x="1820" y="-690" width="100" height="60" as="geometry" />
        </mxCell>
        <mxCell id="o79IeV3QX1OxMx69P52C-1763" value="" style="rounded=0;whiteSpace=wrap;html=1;fillStyle=auto;fillColor=none;strokeColor=#663300;strokeWidth=4;" parent="1" vertex="1">
          <mxGeometry x="150" y="-1010" width="180" height="60" as="geometry" />
        </mxCell>
        <mxCell id="Ud6QV0cFq9waYj0nxRUX-1764" value="" style="edgeStyle=orthogonalEdgeStyle;rounded=0;orthogonalLoop=1;jettySize=auto;html=1;" edge="1" parent="1" source="o79IeV3QX1OxMx69P52C-1764" target="Ud6QV0cFq9waYj0nxRUX-1762">
          <mxGeometry relative="1" as="geometry" />
        </mxCell>
        <mxCell id="o79IeV3QX1OxMx69P52C-1764" value="Point2Mesh" style="rounded=1;whiteSpace=wrap;html=1;shadow=0;labelBackgroundColor=none;strokeColor=none;strokeWidth=3;fillColor=#2F5B7C;fontFamily=Helvetica;fontSize=16;fontColor=#FFFFFF;align=center;fontStyle=1;spacing=5;arcSize=7;perimeterSpacing=2;" parent="1" vertex="1">
          <mxGeometry x="160" y="-1080" width="160" height="40" as="geometry" />
        </mxCell>
        <mxCell id="Ud6QV0cFq9waYj0nxRUX-1765" value="" style="edgeStyle=orthogonalEdgeStyle;rounded=0;orthogonalLoop=1;jettySize=auto;html=1;" edge="1" parent="1" source="Ud6QV0cFq9waYj0nxRUX-1762" target="Ud6QV0cFq9waYj0nxRUX-1763">
          <mxGeometry relative="1" as="geometry" />
        </mxCell>
        <mxCell id="Ud6QV0cFq9waYj0nxRUX-1762" value="MeshCNN" style="rounded=1;whiteSpace=wrap;html=1;shadow=0;labelBackgroundColor=none;strokeColor=none;strokeWidth=3;fillColor=#2F5B7C;fontFamily=Helvetica;fontSize=16;fontColor=#FFFFFF;align=center;fontStyle=1;spacing=5;arcSize=7;perimeterSpacing=2;" vertex="1" parent="1">
          <mxGeometry x="160" y="-1000" width="160" height="40" as="geometry" />
        </mxCell>
        <mxCell id="Ud6QV0cFq9waYj0nxRUX-1763" value="U-Net" style="rounded=1;whiteSpace=wrap;html=1;shadow=0;labelBackgroundColor=none;strokeColor=none;strokeWidth=3;fillColor=#2F5B7C;fontFamily=Helvetica;fontSize=16;fontColor=#FFFFFF;align=center;fontStyle=1;spacing=5;arcSize=7;perimeterSpacing=2;" vertex="1" parent="1">
          <mxGeometry x="160" y="-920" width="160" height="40" as="geometry" />
        </mxCell>
        <mxCell id="Ud6QV0cFq9waYj0nxRUX-1769" value="" style="edgeStyle=orthogonalEdgeStyle;rounded=0;orthogonalLoop=1;jettySize=auto;html=1;" edge="1" parent="1" target="Ud6QV0cFq9waYj0nxRUX-1768">
          <mxGeometry relative="1" as="geometry">
            <mxPoint x="-280" y="-390" as="sourcePoint" />
          </mxGeometry>
        </mxCell>
        <mxCell id="Ud6QV0cFq9waYj0nxRUX-1767" value="" style="rounded=0;whiteSpace=wrap;html=1;fillStyle=auto;fillColor=none;strokeColor=#663300;strokeWidth=4;" vertex="1" parent="1">
          <mxGeometry x="-370" y="-450.5" width="180" height="60" as="geometry" />
        </mxCell>
        <mxCell id="Ud6QV0cFq9waYj0nxRUX-1775" value="" style="edgeStyle=orthogonalEdgeStyle;rounded=0;orthogonalLoop=1;jettySize=auto;html=1;" edge="1" parent="1" source="Ud6QV0cFq9waYj0nxRUX-1768" target="Ud6QV0cFq9waYj0nxRUX-1770">
          <mxGeometry relative="1" as="geometry" />
        </mxCell>
        <mxCell id="Ud6QV0cFq9waYj0nxRUX-1768" value="OpenGL" style="rounded=1;whiteSpace=wrap;html=1;shadow=0;labelBackgroundColor=none;strokeColor=none;strokeWidth=3;fillColor=#2F5B7C;fontFamily=Helvetica;fontSize=16;fontColor=#FFFFFF;align=center;fontStyle=1;spacing=5;arcSize=7;perimeterSpacing=2;" vertex="1" parent="1">
          <mxGeometry x="-340" y="-360" width="120" height="40" as="geometry" />
        </mxCell>
        <mxCell id="Ud6QV0cFq9waYj0nxRUX-1778" value="" style="edgeStyle=orthogonalEdgeStyle;rounded=0;orthogonalLoop=1;jettySize=auto;html=1;" edge="1" parent="1" source="Ud6QV0cFq9waYj0nxRUX-1770">
          <mxGeometry relative="1" as="geometry">
            <mxPoint x="-280" y="-200" as="targetPoint" />
          </mxGeometry>
        </mxCell>
        <mxCell id="Ud6QV0cFq9waYj0nxRUX-1770" value="Unity" style="rounded=1;whiteSpace=wrap;html=1;shadow=0;labelBackgroundColor=none;strokeColor=none;strokeWidth=3;fillColor=#2F5B7C;fontFamily=Helvetica;fontSize=16;fontColor=#FFFFFF;align=center;fontStyle=1;spacing=5;arcSize=7;perimeterSpacing=2;" vertex="1" parent="1">
          <mxGeometry x="-340" y="-280.25" width="120" height="40" as="geometry" />
        </mxCell>
        <mxCell id="Ud6QV0cFq9waYj0nxRUX-1783" style="edgeStyle=orthogonalEdgeStyle;rounded=0;orthogonalLoop=1;jettySize=auto;html=1;entryX=0.5;entryY=0;entryDx=0;entryDy=0;" edge="1" parent="1" source="Ud6QV0cFq9waYj0nxRUX-1772" target="1UIoT6ySWnRTdIGvDfuI-1837">
          <mxGeometry relative="1" as="geometry" />
        </mxCell>
        <mxCell id="Ud6QV0cFq9waYj0nxRUX-1772" value="Unreal" style="rounded=1;whiteSpace=wrap;html=1;shadow=0;labelBackgroundColor=none;strokeColor=none;strokeWidth=3;fillColor=#2F5B7C;fontFamily=Helvetica;fontSize=16;fontColor=#FFFFFF;align=center;fontStyle=1;spacing=5;arcSize=7;perimeterSpacing=2;" vertex="1" parent="1">
          <mxGeometry x="-340" y="40" width="120" height="40" as="geometry" />
        </mxCell>
        <mxCell id="Ud6QV0cFq9waYj0nxRUX-1776" value="" style="rounded=0;whiteSpace=wrap;html=1;fillStyle=auto;fillColor=none;strokeColor=#663300;strokeWidth=4;" vertex="1" parent="1">
          <mxGeometry x="-350" y="-370" width="140" height="60" as="geometry" />
        </mxCell>
        <mxCell id="Ud6QV0cFq9waYj0nxRUX-1786" value="" style="endArrow=none;html=1;rounded=0;fontStyle=1;strokeWidth=4;strokeColor=#000000;dashed=1;" edge="1" parent="1">
          <mxGeometry width="50" height="50" relative="1" as="geometry">
            <mxPoint x="-160" y="1990" as="sourcePoint" />
            <mxPoint x="-160" y="-1200" as="targetPoint" />
          </mxGeometry>
        </mxCell>
        <mxCell id="Ud6QV0cFq9waYj0nxRUX-1787" value="" style="endArrow=none;html=1;rounded=0;fontStyle=1;strokeWidth=4;strokeColor=#000000;dashed=1;" edge="1" parent="1">
          <mxGeometry width="50" height="50" relative="1" as="geometry">
            <mxPoint x="360" y="1990" as="sourcePoint" />
            <mxPoint x="360" y="-1200" as="targetPoint" />
          </mxGeometry>
        </mxCell>
        <mxCell id="Ud6QV0cFq9waYj0nxRUX-1788" value="" style="endArrow=none;html=1;rounded=0;fontStyle=1;strokeWidth=4;strokeColor=#000000;dashed=1;" edge="1" parent="1">
          <mxGeometry width="50" height="50" relative="1" as="geometry">
            <mxPoint x="840" y="1980" as="sourcePoint" />
            <mxPoint x="840" y="-1210" as="targetPoint" />
          </mxGeometry>
        </mxCell>
        <mxCell id="Ud6QV0cFq9waYj0nxRUX-1789" value="" style="endArrow=none;html=1;rounded=0;fontStyle=1;strokeWidth=4;strokeColor=#000000;dashed=1;" edge="1" parent="1">
          <mxGeometry width="50" height="50" relative="1" as="geometry">
            <mxPoint x="1160" y="1990" as="sourcePoint" />
            <mxPoint x="1160" y="-1200" as="targetPoint" />
          </mxGeometry>
        </mxCell>
        <mxCell id="Ud6QV0cFq9waYj0nxRUX-1793" value="Point2Mesh" style="rounded=1;whiteSpace=wrap;html=1;shadow=0;labelBackgroundColor=none;strokeColor=none;strokeWidth=3;fillColor=#2F5B7C;fontFamily=Helvetica;fontSize=16;fontColor=#FFFFFF;align=center;fontStyle=1;spacing=5;arcSize=7;perimeterSpacing=2;" vertex="1" parent="1">
          <mxGeometry x="640" y="-1080.5" width="160" height="40" as="geometry" />
        </mxCell>
        <mxCell id="Ud6QV0cFq9waYj0nxRUX-1794" value="" style="rounded=0;whiteSpace=wrap;html=1;fillStyle=auto;fillColor=none;strokeColor=#663300;strokeWidth=4;" vertex="1" parent="1">
          <mxGeometry x="630" y="-1090" width="180" height="60" as="geometry" />
        </mxCell>
        <mxCell id="Ud6QV0cFq9waYj0nxRUX-1796" value="" style="rounded=0;whiteSpace=wrap;html=1;fillStyle=auto;fillColor=none;strokeColor=#FF0000;strokeWidth=4;" vertex="1" parent="1">
          <mxGeometry x="430" y="-1090" width="100" height="60" as="geometry" />
        </mxCell>
        <mxCell id="Ud6QV0cFq9waYj0nxRUX-1799" style="edgeStyle=orthogonalEdgeStyle;rounded=0;orthogonalLoop=1;jettySize=auto;html=1;entryX=0.5;entryY=0;entryDx=0;entryDy=0;" edge="1" parent="1" source="Ud6QV0cFq9waYj0nxRUX-1798" target="1UIoT6ySWnRTdIGvDfuI-1867">
          <mxGeometry relative="1" as="geometry" />
        </mxCell>
        <mxCell id="Ud6QV0cFq9waYj0nxRUX-1798" value="운영 체제" style="rounded=1;whiteSpace=wrap;html=1;shadow=0;labelBackgroundColor=none;strokeColor=none;strokeWidth=3;fillColor=#2F5B7C;fontFamily=Helvetica;fontSize=16;fontColor=#FFFFFF;align=center;fontStyle=1;spacing=5;arcSize=7;perimeterSpacing=2;" vertex="1" parent="1">
          <mxGeometry x="1200" y="-1090" width="120" height="40" as="geometry" />
        </mxCell>
        <mxCell id="Ud6QV0cFq9waYj0nxRUX-1800" value="" style="rounded=0;whiteSpace=wrap;html=1;fillStyle=auto;fillColor=none;strokeColor=#006600;strokeWidth=4;" vertex="1" parent="1">
          <mxGeometry x="1620" y="-1090" width="100" height="60" as="geometry" />
        </mxCell>
      </root>
    </mxGraphModel>
  </diagram>
</mxfile>
